HIERARCHY
ROOT Hips
{
	OFFSET 0.000000 103.266502 0.000000
	CHANNELS 6 Xposition Yposition Zposition Xrotation Yrotation Zrotation 
	JOINT Spine
	{
		OFFSET -0.002400 12.777504 0.315300
		CHANNELS 3 Xrotation Yrotation Zrotation
		JOINT Spine1
		{
			OFFSET -0.002067 5.816869 0.032633
			CHANNELS 3 Xrotation Yrotation Zrotation
			JOINT Spine1_split
			{
				OFFSET -0.002067 5.816869 0.032633
				CHANNELS 3 Xrotation Yrotation Zrotation
				JOINT Spine2
				{
					OFFSET -0.002067 5.816869 0.032633
					CHANNELS 3 Xrotation Yrotation Zrotation
					JOINT Neck
					{
						OFFSET -0.003700 21.199493 -0.826900
						CHANNELS 3 Xrotation Yrotation Zrotation
						JOINT Head
						{
							OFFSET 0.000000 20.442200 4.834800
							CHANNELS 3 Xrotation Yrotation Zrotation
							JOINT HeadTop_End
							{
								OFFSET 0.000000 34.668396 4.968400
								CHANNELS 3 Xrotation Yrotation Zrotation
								End Site
								{
									OFFSET 0.000000 0.000000 0.000000
								}
							}
						}
					}
					JOINT LeftShoulder
					{
						OFFSET 3.288150 8.794197 -1.372250
						CHANNELS 3 Xrotation Yrotation Zrotation
						JOINT LeftShoulder_split
						{
							OFFSET 3.288150 8.794197 -1.372250
							CHANNELS 3 Xrotation Yrotation Zrotation
							JOINT LeftArm
							{
								OFFSET 11.953299 -2.279007 -0.146200
								CHANNELS 3 Xrotation Yrotation Zrotation
								JOINT LeftForeArm
								{
									OFFSET 18.448900 0.000000 0.000000
									CHANNELS 3 Xrotation Yrotation Zrotation
									JOINT LeftHand
									{
										OFFSET 29.527798 0.000000 0.000000
										CHANNELS 3 Xrotation Yrotation Zrotation
										JOINT LeftHandThumb1
										{
											OFFSET 10.739754 -2.369614 9.225399
											CHANNELS 3 Xrotation Yrotation Zrotation
											JOINT LeftHandThumb2
											{
												OFFSET 4.926170 -2.844131 2.844125
												CHANNELS 3 Xrotation Yrotation Zrotation
												JOINT LeftHandThumb3
												{
													OFFSET 4.614891 -2.664413 2.664409
													CHANNELS 3 Xrotation Yrotation Zrotation
													JOINT LeftHandThumb4
													{
														OFFSET 4.432465 -2.559082 2.559083
														CHANNELS 3 Xrotation Yrotation Zrotation
														End Site
														{
															OFFSET 0.000000 0.000000 0.000000
														}
													}
												}
											}
										}
										JOINT LeftHandIndex1
										{
											OFFSET 26.467674 0.187653 6.405298
											CHANNELS 3 Xrotation Yrotation Zrotation
											JOINT LeftHandIndex2
											{
												OFFSET 8.792900 0.000000 0.000000
												CHANNELS 3 Xrotation Yrotation Zrotation
												JOINT LeftHandIndex3
												{
													OFFSET 10.075203 0.000000 0.000000
													CHANNELS 3 Xrotation Yrotation Zrotation
													End Site
													{
														OFFSET 0.000000 0.000000 0.000000
													}
												}
											}
										}
										JOINT LeftHandMiddle1
										{
											OFFSET 25.764404 0.000000 0.000000
											CHANNELS 3 Xrotation Yrotation Zrotation
											JOINT LeftHandMiddle2
											{
												OFFSET 9.393974 0.000000 0.000000
												CHANNELS 3 Xrotation Yrotation Zrotation
												JOINT LeftHandMiddle3
												{
													OFFSET 10.771950 0.000000 0.000000
													CHANNELS 3 Xrotation Yrotation Zrotation
													End Site
													{
														OFFSET 0.000000 0.000000 0.000000
													}
												}
											}
										}
										JOINT LeftHandRing1
										{
											OFFSET 24.660927 0.144547 -6.225808
											CHANNELS 3 Xrotation Yrotation Zrotation
											JOINT LeftHandRing2
											{
												OFFSET 9.393799 0.000000 0.000000
												CHANNELS 3 Xrotation Yrotation Zrotation
												JOINT LeftHandRing3
												{
													OFFSET 9.928497 0.000000 0.000000
													CHANNELS 3 Xrotation Yrotation Zrotation
													End Site
													{
														OFFSET 0.000000 0.000000 0.000000
													}
												}
											}
										}
										JOINT LeftHandPinky1
										{
											OFFSET 23.655350 0.125290 -12.815412
											CHANNELS 3 Xrotation Yrotation Zrotation
											JOINT LeftHandPinky2
											{
												OFFSET 8.425102 0.000000 0.000000
												CHANNELS 3 Xrotation Yrotation Zrotation
												JOINT LeftHandPinky3
												{
													OFFSET 8.147003 0.000000 0.000000
													CHANNELS 3 Xrotation Yrotation Zrotation
													End Site
													{
														OFFSET 0.000000 0.000000 0.000000
													}
												}
											}
										}
									}
								}
							}
						}
					}
					JOINT RightShoulder
					{
						OFFSET -3.249400 8.794197 -1.372250
						CHANNELS 3 Xrotation Yrotation Zrotation
						JOINT RightShoulder_split
						{
							OFFSET -3.249400 8.794197 -1.372250
							CHANNELS 3 Xrotation Yrotation Zrotation
							JOINT RightArm
							{
								OFFSET -11.953299 -2.279007 -0.146200
								CHANNELS 3 Xrotation Yrotation Zrotation
								JOINT RightForeArm
								{
									OFFSET -18.448900 0.000000 0.000000
									CHANNELS 3 Xrotation Yrotation Zrotation
									JOINT RightHand
									{
										OFFSET -29.527802 0.000000 0.000000
										CHANNELS 3 Xrotation Yrotation Zrotation
										JOINT RightHandThumb1
										{
											OFFSET -10.739754 -2.369614 9.225399
											CHANNELS 3 Xrotation Yrotation Zrotation
											JOINT RightHandThumb2
											{
												OFFSET -4.926170 -2.844131 2.844125
												CHANNELS 3 Xrotation Yrotation Zrotation
												JOINT RightHandThumb3
												{
													OFFSET -4.614891 -2.664413 2.664409
													CHANNELS 3 Xrotation Yrotation Zrotation
													JOINT RightHandThumb4
													{
														OFFSET -4.432465 -2.559082 2.559083
														CHANNELS 3 Xrotation Yrotation Zrotation
														End Site
														{
															OFFSET 0.000000 0.000000 0.000000
														}
													}
												}
											}
										}
										JOINT RightHandIndex1
										{
											OFFSET -26.467674 0.187653 6.405298
											CHANNELS 3 Xrotation Yrotation Zrotation
											JOINT RightHandIndex2
											{
												OFFSET -8.792900 0.000000 0.000000
												CHANNELS 3 Xrotation Yrotation Zrotation
												JOINT RightHandIndex3
												{
													OFFSET -10.075203 0.000000 0.000000
													CHANNELS 3 Xrotation Yrotation Zrotation
													End Site
													{
														OFFSET 0.000000 0.000000 0.000000
													}
												}
											}
										}
										JOINT RightHandMiddle1
										{
											OFFSET -25.764404 0.000000 0.000000
											CHANNELS 3 Xrotation Yrotation Zrotation
											JOINT RightHandMiddle2
											{
												OFFSET -9.393974 0.000000 0.000000
												CHANNELS 3 Xrotation Yrotation Zrotation
												JOINT RightHandMiddle3
												{
													OFFSET -10.771950 0.000000 0.000000
													CHANNELS 3 Xrotation Yrotation Zrotation
													End Site
													{
														OFFSET 0.000000 0.000000 0.000000
													}
												}
											}
										}
										JOINT RightHandRing1
										{
											OFFSET -24.660927 0.144547 -6.225808
											CHANNELS 3 Xrotation Yrotation Zrotation
											JOINT RightHandRing2
											{
												OFFSET -9.393799 0.000000 0.000000
												CHANNELS 3 Xrotation Yrotation Zrotation
												JOINT RightHandRing3
												{
													OFFSET -9.928497 0.000000 0.000000
													CHANNELS 3 Xrotation Yrotation Zrotation
													End Site
													{
														OFFSET 0.000000 0.000000 0.000000
													}
												}
											}
										}
										JOINT RightHandPinky1
										{
											OFFSET -23.655350 0.125290 -12.815412
											CHANNELS 3 Xrotation Yrotation Zrotation
											JOINT RightHandPinky2
											{
												OFFSET -8.425102 0.000000 0.000000
												CHANNELS 3 Xrotation Yrotation Zrotation
												JOINT RightHandPinky3
												{
													OFFSET -8.147003 0.000000 0.000000
													CHANNELS 3 Xrotation Yrotation Zrotation
													End Site
													{
														OFFSET 0.000000 0.000000 0.000000
													}
												}
											}
										}
									}
								}
							}
						}
					}
				}
			}
		}
	}
	JOINT LeftUpLeg
	{
		OFFSET 11.394100 -6.187798 -0.413800
		CHANNELS 3 Xrotation Yrotation Zrotation
		JOINT LeftLeg
		{
			OFFSET 0.430247 -32.302673 3.732800
			CHANNELS 3 Xrotation Yrotation Zrotation
			JOINT LeftFoot
			{
				OFFSET -0.430247 -48.264931 -6.423300
				CHANNELS 3 Xrotation Yrotation Zrotation
				JOINT LeftToeBase
				{
					OFFSET 4.230900 -16.068199 23.438400
					CHANNELS 3 Xrotation Yrotation Zrotation
					JOINT LeftToe_End
					{
						OFFSET 4.510700 0.695400 19.974600
						CHANNELS 3 Xrotation Yrotation Zrotation
						End Site
						{
							OFFSET 0.000000 0.000000 0.000000
						}
					}
				}
			}
		}
	}
	JOINT RightUpLeg
	{
		OFFSET -11.333700 -6.187798 -0.413800
		CHANNELS 3 Xrotation Yrotation Zrotation
		JOINT RightLeg
		{
			OFFSET -0.430392 -32.302628 3.733000
			CHANNELS 3 Xrotation Yrotation Zrotation
			JOINT RightFoot
			{
				OFFSET 0.430392 -48.264973 -6.423500
				CHANNELS 3 Xrotation Yrotation Zrotation
				JOINT RightToeBase
				{
					OFFSET -4.230900 -16.068199 23.438400
					CHANNELS 3 Xrotation Yrotation Zrotation
					JOINT RightToe_End
					{
						OFFSET -4.510700 0.695400 19.974600
						CHANNELS 3 Xrotation Yrotation Zrotation
						End Site
						{
							OFFSET 0.000000 0.000000 0.000000
						}
					}
				}
			}
		}
	}
}
MOTION
Frames: 4
Frame Time: 0.016667
-0.975945 85.598671 1.490438 19.405073 -43.729870 5.769203 0.723064 6.501695 0.149479 -1.588671 4.492977 -2.192220 0.000000 0.000000 0.000000 -1.597446 -0.195613 1.993553 12.118093 6.829914 -4.433337 -0.737346 20.027402 8.229671 -0.000001 0.000001 0.000000 3.544242 4.756009 -11.623018 0.000000 0.000000 0.000000 -54.038835 -33.116421 -50.381541 0.000608 -81.882357 0.000593 -58.768382 25.992608 38.870340 -14.557459 10.837966 12.229953 0.749547 -4.257877 13.305513 -10.783719 -23.179372 -4.132422 0.000001 -0.000001 0.000000 -0.809540 2.578166 -31.496447 3.095885 5.163789 -61.866972 -0.000000 -0.000000 -0.000001 -2.430847 1.729223 -41.460935 2.952357 5.084730 -60.259925 -0.000000 0.000002 0.000001 -6.054130 -0.166582 -49.857591 3.046254 5.137027 -61.313952 0.000000 -0.000000 -0.000001 -8.298312 -6.522645 -38.520160 2.848776 5.024392 -59.084415 -0.000001 -0.000000 -0.000000 -14.733705 2.115970 -4.463088 0.000000 0.000000 0.000000 72.337536 138.834045 -52.653484 -0.000003 29.080698 0.000004 -49.752464 -7.371289 -31.498756 8.377127 -4.904141 11.021986 21.620204 -18.183893 -18.379209 -0.702889 -49.821217 -32.535162 -0.000001 -0.000000 -0.000002 0.558943 -4.406592 25.436635 1.653033 -3.560355 49.799097 0.000000 -0.000000 0.000000 10.969821 -12.875573 52.800835 6.387592 -4.324420 111.833672 -0.000002 -0.000001 0.000001 3.705086 -7.151328 57.622447 5.328202 -4.608683 98.293437 -0.000001 -0.000001 0.000005 0.474829 -5.172996 58.987658 3.194330 -4.421925 71.674168 -0.000001 0.000000 0.000000 -75.512720 -10.439997 13.893025 46.944891 -6.851661 4.745044 22.114546 -1.695210 -11.422211 -4.451395 0.223346 -2.866498 0.000000 0.000000 -0.000000 -45.314320 -5.904490 -16.591296 56.612371 -9.569446 3.757332 -12.296758 -19.623227 19.693339 -1.117562 -0.000009 -0.000004 -0.000000 -0.000000 -0.000000 
-0.895357 86.150040 -1.818682 20.278024 -43.722496 6.336076 0.973534 6.484635 0.454248 -1.410113 4.462637 -2.203678 0.000000 0.000000 0.000000 -1.413476 -0.229852 1.985881 11.799613 6.804079 -4.313536 -1.333355 19.778531 8.281245 0.000001 -0.000000 0.000000 3.460880 4.416665 -11.409034 0.000000 0.000000 0.000000 -54.824607 -33.117760 -50.523404 0.000312 -81.497039 0.000324 -58.132348 25.445103 38.283996 -14.557461 10.837965 12.229957 0.749543 -4.257875 13.305512 -10.783715 -23.179376 -4.132422 0.000002 -0.000001 0.000000 -0.809540 2.578166 -31.496454 3.095888 5.163789 -61.866972 -0.000001 -0.000001 -0.000001 -2.430851 1.729222 -41.460935 2.952355 5.084727 -60.259931 -0.000001 0.000002 -0.000001 -6.054132 -0.166581 -49.857591 3.046253 5.137028 -61.313952 0.000000 0.000001 0.000001 -8.298314 -6.522644 -38.520160 2.848777 5.024392 -59.084415 -0.000000 -0.000000 -0.000001 -14.724956 2.110612 -4.402638 0.000000 0.000000 0.000000 72.361988 139.310587 -53.074600 0.000012 28.936909 -0.000008 -48.762431 -6.817474 -31.328551 8.377130 -4.904142 11.021987 21.620197 -18.183893 -18.379209 -0.702889 -49.821217 -32.535155 0.000001 -0.000000 0.000000 0.558943 -4.406591 25.436634 1.653034 -3.560354 49.799097 0.000000 0.000000 0.000002 10.969823 -12.875574 52.800839 6.387592 -4.324419 111.833665 0.000001 0.000000 0.000000 3.705086 -7.151328 57.622447 5.328202 -4.608685 98.293430 -0.000001 0.000000 -0.000002 0.474829 -5.172997 58.987658 3.194330 -4.421925 71.674175 -0.000000 0.000000 0.000002 -78.481428 -8.261271 12.316157 54.006623 -7.704088 2.703921 17.300480 -1.383911 -13.084125 -6.045750 -0.433683 4.087826 0.000000 -0.000000 0.000000 -47.991115 -6.317191 -15.617518 57.240858 -9.841542 5.123136 -12.223924 -19.691563 16.599769 -2.251967 -0.000019 0.000001 -0.000000 0.000000 -0.000000 
-0.754313 86.798668 -5.052341 21.564736 -44.276947 7.181126 1.083885 6.852870 0.734433 -1.310865 4.621465 -2.233297 0.000000 0.000000 0.000000 -1.314412 -0.079140 1.955558 11.539370 6.719170 -4.205102 -1.771499 19.427322 8.399851 -0.000000 -0.000000 -0.000000 3.451684 4.257297 -11.406561 0.000000 0.000000 0.000000 -55.761531 -33.679342 -50.844847 -0.000329 -80.674178 -0.000325 -57.419290 24.773798 37.437988 -14.557464 10.837963 12.229957 0.749543 -4.257872 13.305512 -10.783721 -23.179371 -4.132422 0.000002 -0.000001 0.000000 -0.809539 2.578166 -31.496447 3.095891 5.163789 -61.866972 0.000000 -0.000001 -0.000003 -2.430851 1.729222 -41.460935 2.952356 5.084728 -60.259925 0.000000 0.000001 -0.000003 -6.054134 -0.166582 -49.857591 3.046254 5.137029 -61.313959 -0.000000 -0.000000 -0.000001 -8.298311 -6.522645 -38.520163 2.848775 5.024389 -59.084415 -0.000000 -0.000000 0.000002 -14.702144 2.142278 -4.298179 0.000000 0.000000 0.000000 72.738653 139.648982 -53.739013 -0.000015 28.981988 0.000012 -47.783416 -6.248424 -31.304174 8.377127 -4.904142 11.021986 21.620199 -18.183893 -18.379207 -0.702885 -49.821220 -32.535159 0.000002 0.000000 0.000001 0.558943 -4.406591 25.436632 1.653033 -3.560354 49.799097 0.000000 -0.000000 -0.000000 10.969822 -12.875572 52.800825 6.387591 -4.324421 111.833672 0.000001 0.000001 -0.000001 3.705085 -7.151327 57.622440 5.328201 -4.608684 98.293430 -0.000001 0.000000 0.000001 0.474829 -5.172996 58.987658 3.194330 -4.421925 71.674168 -0.000001 -0.000000 0.000003 -80.388690 -5.329308 10.558211 60.443670 -8.042912 1.123578 10.863447 -2.183047 -11.313319 -4.506375 -0.444211 5.618170 -0.000000 -0.000000 0.000000 -50.645470 -6.998964 -14.921009 57.278031 -9.891775 6.766243 -11.785188 -18.547283 13.237023 -4.032516 -0.000015 -0.000009 0.000000 -0.000000 0.000000 
-0.584411 87.440987 -8.214546 23.241911 -45.327799 8.237727 1.053467 7.547542 1.034745 -1.289597 4.928863 -2.265302 0.000000 0.000000 0.000000 -1.295697 0.217598 1.919091 11.325044 6.588900 -4.114613 -2.085919 19.014984 8.543330 -0.000000 0.000000 -0.000001 3.505660 4.264392 -11.583821 0.000000 0.000000 0.000000 -56.751857 -34.575493 -51.320850 0.000297 -79.627636 0.000286 -56.773212 24.062599 36.543349 -14.557461 10.837965 12.229954 0.749545 -4.257874 13.305514 -10.783720 -23.179372 -4.132422 -0.000002 -0.000000 0.000001 -0.809538 2.578166 -31.496447 3.095890 5.163788 -61.866966 -0.000000 -0.000001 -0.000001 -2.430847 1.729222 -41.460939 2.952356 5.084727 -60.259925 -0.000000 0.000002 -0.000001 -6.054132 -0.166581 -49.857587 3.046254 5.137027 -61.313959 0.000001 0.000000 0.000000 -8.298311 -6.522645 -38.520163 2.848775 5.024390 -59.084415 -0.000000 -0.000001 0.000001 -14.671333 2.216718 -4.184591 0.000000 0.000000 0.000000 73.273703 139.812934 -54.505343 -0.000015 29.166144 0.000006 -46.933556 -5.789911 -31.371762 8.377127 -4.904141 11.021992 21.620197 -18.183893 -18.379211 -0.702892 -49.821220 -32.535159 0.000002 -0.000000 -0.000001 0.558943 -4.406591 25.436635 1.653033 -3.560354 49.799097 0.000000 -0.000000 0.000001 10.969823 -12.875573 52.800835 6.387592 -4.324422 111.833658 0.000001 -0.000000 0.000001 3.705086 -7.151328 57.622447 5.328202 -4.608686 98.293430 -0.000001 -0.000000 0.000000 0.474829 -5.172996 58.987658 3.194329 -4.421925 71.674161 -0.000001 -0.000000 0.000004 -81.203463 -2.535362 9.372298 65.025313 -7.434380 -0.163976 6.461821 -5.691788 -10.084779 -4.495782 -0.439219 5.568170 -0.000000 0.000002 0.000001 -52.939089 -8.081518 -14.393387 56.675947 -10.090221 8.625363 -11.128446 -15.656762 9.984539 -5.043910 -0.000022 -0.000004 0.000000 0.000000 0.000000 
